<mxfile host="65bd71144e">
    <diagram id="rWC0qb28uYbGbDYMN7UX" name="Main Diagram">
        <mxGraphModel dx="746" dy="563" grid="1" gridSize="10" guides="1" tooltips="1" connect="1" arrows="1" fold="1" page="1" pageScale="1" pageWidth="850" pageHeight="1100" math="0" shadow="0">
            <root>
                <mxCell id="0"/>
                <mxCell id="1" parent="0"/>
                <mxCell id="2" value="&lt;font style=&quot;font-size: 27px;&quot;&gt;Header&lt;/font&gt;" style="rounded=0;whiteSpace=wrap;html=1;" parent="1" vertex="1">
                    <mxGeometry x="240" y="80" width="440" height="80" as="geometry"/>
                </mxCell>
                <mxCell id="4" value="Content" style="rounded=0;whiteSpace=wrap;html=1;rotation=90;" parent="1" vertex="1">
                    <mxGeometry x="210" y="260" width="120" height="60" as="geometry"/>
                </mxCell>
                <mxCell id="6" value="Main Content" style="rounded=0;whiteSpace=wrap;html=1;fontSize=27;" parent="1" vertex="1">
                    <mxGeometry x="310" y="230" width="300" height="120" as="geometry"/>
                </mxCell>
                <mxCell id="7" value="Corent" style="rounded=0;whiteSpace=wrap;html=1;rotation=90;" parent="1" vertex="1">
                    <mxGeometry x="590" y="260" width="120" height="60" as="geometry"/>
                </mxCell>
                <mxCell id="8" value="Footer" style="rounded=0;whiteSpace=wrap;html=1;fontSize=27;" parent="1" vertex="1">
                    <mxGeometry x="240" y="360" width="440" height="60" as="geometry"/>
                </mxCell>
                <mxCell id="9" value="&lt;font style=&quot;font-size: 27px;&quot;&gt;Navigation&lt;/font&gt;" style="rounded=0;whiteSpace=wrap;html=1;" parent="1" vertex="1">
                    <mxGeometry x="240" y="170" width="440" height="50" as="geometry"/>
                </mxCell>
                <mxCell id="F_fqtN3L_QHosSLTodSl-9" value="Konsep Website Protofolio" style="swimlane;fontStyle=0;childLayout=stackLayout;horizontal=1;startSize=30;horizontalStack=0;resizeParent=1;resizeParentMax=0;resizeLast=0;collapsible=1;marginBottom=0;whiteSpace=wrap;html=1;fontSize=16;" parent="1" vertex="1">
                    <mxGeometry x="50" y="460" width="400" height="140" as="geometry"/>
                </mxCell>
                <mxCell id="F_fqtN3L_QHosSLTodSl-10" value="&lt;div style=&quot;text-align: justify;&quot;&gt;&lt;span style=&quot;background-color: initial;&quot;&gt;Websitenya itu berbasis satu halaman atau berbagai halaman?&lt;/span&gt;&lt;/div&gt;" style="text;strokeColor=none;fillColor=none;align=left;verticalAlign=middle;spacingLeft=4;spacingRight=4;overflow=hidden;points=[[0,0.5],[1,0.5]];portConstraint=eastwest;rotatable=0;whiteSpace=wrap;html=1;fontSize=15;" parent="F_fqtN3L_QHosSLTodSl-9" vertex="1">
                    <mxGeometry y="30" width="400" height="60" as="geometry"/>
                </mxCell>
                <mxCell id="F_fqtN3L_QHosSLTodSl-11" value="Untuk websitenya itu dibuat dengan framework atau memakai dasaran seperti css,html,javascript?" style="text;strokeColor=none;fillColor=none;align=left;verticalAlign=middle;spacingLeft=4;spacingRight=4;overflow=hidden;points=[[0,0.5],[1,0.5]];portConstraint=eastwest;rotatable=0;whiteSpace=wrap;html=1;fontSize=15;" parent="F_fqtN3L_QHosSLTodSl-9" vertex="1">
                    <mxGeometry y="90" width="400" height="50" as="geometry"/>
                </mxCell>
                <mxCell id="F_fqtN3L_QHosSLTodSl-17" value="Terdiri atas berbagai halaman" style="rounded=0;whiteSpace=wrap;html=1;fontSize=15;" parent="1" vertex="1">
                    <mxGeometry x="610" y="460" width="120" height="60" as="geometry"/>
                </mxCell>
                <mxCell id="F_fqtN3L_QHosSLTodSl-18" style="edgeStyle=none;html=1;exitX=0.999;exitY=0.181;exitDx=0;exitDy=0;entryX=0;entryY=0.5;entryDx=0;entryDy=0;fontSize=15;exitPerimeter=0;" parent="1" source="F_fqtN3L_QHosSLTodSl-10" target="F_fqtN3L_QHosSLTodSl-17" edge="1">
                    <mxGeometry relative="1" as="geometry"/>
                </mxCell>
                <mxCell id="F_fqtN3L_QHosSLTodSl-19" value="Memakai framwork terutama botstrap" style="rounded=0;whiteSpace=wrap;html=1;fontSize=15;" parent="1" vertex="1">
                    <mxGeometry x="610" y="540" width="120" height="60" as="geometry"/>
                </mxCell>
                <mxCell id="F_fqtN3L_QHosSLTodSl-20" style="edgeStyle=none;html=1;exitX=1;exitY=0.5;exitDx=0;exitDy=0;entryX=0;entryY=0.5;entryDx=0;entryDy=0;fontSize=15;" parent="1" source="F_fqtN3L_QHosSLTodSl-11" target="F_fqtN3L_QHosSLTodSl-19" edge="1">
                    <mxGeometry relative="1" as="geometry"/>
                </mxCell>
            </root>
        </mxGraphModel>
    </diagram>
    <diagram id="0qn68v2cb4sgI6QBJ_Hp" name="Header">
        <mxGraphModel dx="746" dy="563" grid="1" gridSize="10" guides="1" tooltips="1" connect="1" arrows="1" fold="1" page="1" pageScale="1" pageWidth="850" pageHeight="1100" math="0" shadow="0">
            <root>
                <mxCell id="0"/>
                <mxCell id="1" parent="0"/>
                <mxCell id="7RrVs-BGt0MG-iZD2zXG-1" value="List Isi Header" style="swimlane;fontStyle=0;childLayout=stackLayout;horizontal=1;startSize=30;horizontalStack=0;resizeParent=1;resizeParentMax=0;resizeLast=0;collapsible=1;marginBottom=0;whiteSpace=wrap;html=1;fontSize=19;" parent="1" vertex="1">
                    <mxGeometry x="20" y="110" width="310" height="110" as="geometry"/>
                </mxCell>
                <mxCell id="7RrVs-BGt0MG-iZD2zXG-2" value="Logo (Opsional)" style="text;strokeColor=none;fillColor=none;align=left;verticalAlign=middle;spacingLeft=4;spacingRight=4;overflow=hidden;points=[[0,0.5],[1,0.5]];portConstraint=eastwest;rotatable=0;html=1;fontSize=27;" parent="7RrVs-BGt0MG-iZD2zXG-1" vertex="1">
                    <mxGeometry y="30" width="310" height="40" as="geometry"/>
                </mxCell>
                <mxCell id="7RrVs-BGt0MG-iZD2zXG-3" value="Navigasi" style="text;strokeColor=none;fillColor=none;align=left;verticalAlign=middle;spacingLeft=4;spacingRight=4;overflow=hidden;points=[[0,0.5],[1,0.5]];portConstraint=eastwest;rotatable=0;whiteSpace=wrap;html=1;fontSize=27;" parent="7RrVs-BGt0MG-iZD2zXG-1" vertex="1">
                    <mxGeometry y="70" width="310" height="40" as="geometry"/>
                </mxCell>
                <mxCell id="Nbx2pzwU4rbBYO5Bk-S7-6" style="edgeStyle=none;html=1;exitX=0.5;exitY=1;exitDx=0;exitDy=0;entryX=0.5;entryY=0;entryDx=0;entryDy=0;fontSize=12;" parent="1" source="pFw1h6F8-_uqPK1Jm1A5-1" target="pFw1h6F8-_uqPK1Jm1A5-3" edge="1">
                    <mxGeometry relative="1" as="geometry"/>
                </mxCell>
                <mxCell id="Nbx2pzwU4rbBYO5Bk-S7-7" style="edgeStyle=none;html=1;exitX=0.5;exitY=1;exitDx=0;exitDy=0;entryX=0.5;entryY=0;entryDx=0;entryDy=0;fontSize=12;" parent="1" source="pFw1h6F8-_uqPK1Jm1A5-1" target="pFw1h6F8-_uqPK1Jm1A5-4" edge="1">
                    <mxGeometry relative="1" as="geometry"/>
                </mxCell>
                <mxCell id="Nbx2pzwU4rbBYO5Bk-S7-8" style="edgeStyle=none;html=1;exitX=0.5;exitY=1;exitDx=0;exitDy=0;entryX=0.5;entryY=0;entryDx=0;entryDy=0;fontSize=12;" parent="1" source="pFw1h6F8-_uqPK1Jm1A5-1" target="pFw1h6F8-_uqPK1Jm1A5-6" edge="1">
                    <mxGeometry relative="1" as="geometry"/>
                </mxCell>
                <mxCell id="Nbx2pzwU4rbBYO5Bk-S7-9" style="edgeStyle=none;html=1;exitX=0.5;exitY=1;exitDx=0;exitDy=0;entryX=0.5;entryY=0;entryDx=0;entryDy=0;fontSize=12;" parent="1" source="pFw1h6F8-_uqPK1Jm1A5-1" target="pFw1h6F8-_uqPK1Jm1A5-7" edge="1">
                    <mxGeometry relative="1" as="geometry"/>
                </mxCell>
                <mxCell id="pFw1h6F8-_uqPK1Jm1A5-1" value="Navigasi" style="rounded=0;whiteSpace=wrap;html=1;" parent="1" vertex="1">
                    <mxGeometry x="550" y="135" width="140" height="50" as="geometry"/>
                </mxCell>
                <mxCell id="Nbx2pzwU4rbBYO5Bk-S7-1" style="edgeStyle=none;html=1;exitX=1;exitY=0.5;exitDx=0;exitDy=0;entryX=0;entryY=0.5;entryDx=0;entryDy=0;fontSize=12;" parent="1" source="7RrVs-BGt0MG-iZD2zXG-2" target="pFw1h6F8-_uqPK1Jm1A5-1" edge="1">
                    <mxGeometry relative="1" as="geometry"/>
                </mxCell>
                <mxCell id="OtXa7zUtlyDd4jM8u-MA-23" style="edgeStyle=none;html=1;entryX=0.5;entryY=0;entryDx=0;entryDy=0;" parent="1" source="pFw1h6F8-_uqPK1Jm1A5-3" target="OtXa7zUtlyDd4jM8u-MA-2" edge="1">
                    <mxGeometry relative="1" as="geometry"/>
                </mxCell>
                <mxCell id="pFw1h6F8-_uqPK1Jm1A5-3" value="Home" style="rounded=0;whiteSpace=wrap;html=1;" parent="1" vertex="1">
                    <mxGeometry x="380" y="220" width="140" height="50" as="geometry"/>
                </mxCell>
                <mxCell id="OtXa7zUtlyDd4jM8u-MA-24" style="edgeStyle=none;html=1;entryX=0.5;entryY=0;entryDx=0;entryDy=0;" parent="1" source="pFw1h6F8-_uqPK1Jm1A5-4" target="OtXa7zUtlyDd4jM8u-MA-10" edge="1">
                    <mxGeometry relative="1" as="geometry"/>
                </mxCell>
                <mxCell id="pFw1h6F8-_uqPK1Jm1A5-4" value="Portfolio" style="rounded=0;whiteSpace=wrap;html=1;" parent="1" vertex="1">
                    <mxGeometry x="550" y="220" width="140" height="50" as="geometry"/>
                </mxCell>
                <mxCell id="OtXa7zUtlyDd4jM8u-MA-25" style="edgeStyle=none;html=1;entryX=0.5;entryY=0;entryDx=0;entryDy=0;" parent="1" source="pFw1h6F8-_uqPK1Jm1A5-6" target="OtXa7zUtlyDd4jM8u-MA-16" edge="1">
                    <mxGeometry relative="1" as="geometry"/>
                </mxCell>
                <mxCell id="pFw1h6F8-_uqPK1Jm1A5-6" value="Experiences" style="rounded=0;whiteSpace=wrap;html=1;" parent="1" vertex="1">
                    <mxGeometry x="720" y="220" width="140" height="50" as="geometry"/>
                </mxCell>
                <mxCell id="OtXa7zUtlyDd4jM8u-MA-26" style="edgeStyle=none;html=1;entryX=0.5;entryY=0;entryDx=0;entryDy=0;" parent="1" source="pFw1h6F8-_uqPK1Jm1A5-7" target="OtXa7zUtlyDd4jM8u-MA-21" edge="1">
                    <mxGeometry relative="1" as="geometry"/>
                </mxCell>
                <mxCell id="pFw1h6F8-_uqPK1Jm1A5-7" value="About" style="rounded=0;whiteSpace=wrap;html=1;" parent="1" vertex="1">
                    <mxGeometry x="880" y="220" width="140" height="50" as="geometry"/>
                </mxCell>
                <mxCell id="OtXa7zUtlyDd4jM8u-MA-2" value="Home page" style="swimlane;fontStyle=0;childLayout=stackLayout;horizontal=1;startSize=30;horizontalStack=0;resizeParent=1;resizeParentMax=0;resizeLast=0;collapsible=1;marginBottom=0;whiteSpace=wrap;html=1;fontSize=12;" parent="1" vertex="1">
                    <mxGeometry x="380" y="320" width="140" height="190" as="geometry">
                        <mxRectangle x="1180" y="180" width="70" height="30" as="alternateBounds"/>
                    </mxGeometry>
                </mxCell>
                <mxCell id="OtXa7zUtlyDd4jM8u-MA-3" value="Foto profil" style="text;strokeColor=none;fillColor=none;align=left;verticalAlign=middle;spacingLeft=4;spacingRight=4;overflow=hidden;points=[[0,0.5],[1,0.5]];portConstraint=eastwest;rotatable=0;whiteSpace=wrap;html=1;fontSize=12;" parent="OtXa7zUtlyDd4jM8u-MA-2" vertex="1">
                    <mxGeometry y="30" width="140" height="40" as="geometry"/>
                </mxCell>
                <mxCell id="OtXa7zUtlyDd4jM8u-MA-4" value="Posisi" style="text;strokeColor=none;fillColor=none;align=left;verticalAlign=middle;spacingLeft=4;spacingRight=4;overflow=hidden;points=[[0,0.5],[1,0.5]];portConstraint=eastwest;rotatable=0;whiteSpace=wrap;html=1;fontSize=12;" parent="OtXa7zUtlyDd4jM8u-MA-2" vertex="1">
                    <mxGeometry y="70" width="140" height="30" as="geometry"/>
                </mxCell>
                <mxCell id="OtXa7zUtlyDd4jM8u-MA-5" value="Skill (dibutuhin posisi)" style="text;strokeColor=none;fillColor=none;align=left;verticalAlign=middle;spacingLeft=4;spacingRight=4;overflow=hidden;points=[[0,0.5],[1,0.5]];portConstraint=eastwest;rotatable=0;whiteSpace=wrap;html=1;fontSize=12;" parent="OtXa7zUtlyDd4jM8u-MA-2" vertex="1">
                    <mxGeometry y="100" width="140" height="30" as="geometry"/>
                </mxCell>
                <mxCell id="OtXa7zUtlyDd4jM8u-MA-6" value="Pengalaman kerja (dibutuhin posisi)" style="text;strokeColor=none;fillColor=none;align=left;verticalAlign=middle;spacingLeft=4;spacingRight=4;overflow=hidden;points=[[0,0.5],[1,0.5]];portConstraint=eastwest;rotatable=0;whiteSpace=wrap;html=1;fontSize=12;" parent="OtXa7zUtlyDd4jM8u-MA-2" vertex="1">
                    <mxGeometry y="130" width="140" height="30" as="geometry"/>
                </mxCell>
                <mxCell id="OtXa7zUtlyDd4jM8u-MA-7" value="Sertifikasi" style="text;strokeColor=none;fillColor=none;align=left;verticalAlign=middle;spacingLeft=4;spacingRight=4;overflow=hidden;points=[[0,0.5],[1,0.5]];portConstraint=eastwest;rotatable=0;whiteSpace=wrap;html=1;fontSize=12;" parent="OtXa7zUtlyDd4jM8u-MA-2" vertex="1">
                    <mxGeometry y="160" width="140" height="30" as="geometry"/>
                </mxCell>
                <mxCell id="OtXa7zUtlyDd4jM8u-MA-10" value="Portfolio Page" style="swimlane;fontStyle=0;childLayout=stackLayout;horizontal=1;startSize=30;horizontalStack=0;resizeParent=1;resizeParentMax=0;resizeLast=0;collapsible=1;marginBottom=0;whiteSpace=wrap;html=1;fontSize=12;" parent="1" vertex="1">
                    <mxGeometry x="550" y="320" width="140" height="160" as="geometry">
                        <mxRectangle x="1180" y="180" width="70" height="30" as="alternateBounds"/>
                    </mxGeometry>
                </mxCell>
                <mxCell id="OtXa7zUtlyDd4jM8u-MA-11" value="Hasil Skripsi/TA" style="text;strokeColor=none;fillColor=none;align=left;verticalAlign=middle;spacingLeft=4;spacingRight=4;overflow=hidden;points=[[0,0.5],[1,0.5]];portConstraint=eastwest;rotatable=0;whiteSpace=wrap;html=1;fontSize=12;" parent="OtXa7zUtlyDd4jM8u-MA-10" vertex="1">
                    <mxGeometry y="30" width="140" height="40" as="geometry"/>
                </mxCell>
                <mxCell id="OtXa7zUtlyDd4jM8u-MA-12" value="Project Mata Kuliah" style="text;strokeColor=none;fillColor=none;align=left;verticalAlign=middle;spacingLeft=4;spacingRight=4;overflow=hidden;points=[[0,0.5],[1,0.5]];portConstraint=eastwest;rotatable=0;whiteSpace=wrap;html=1;fontSize=12;" parent="OtXa7zUtlyDd4jM8u-MA-10" vertex="1">
                    <mxGeometry y="70" width="140" height="30" as="geometry"/>
                </mxCell>
                <mxCell id="OtXa7zUtlyDd4jM8u-MA-13" value="Dokumentasi pekerjaan" style="text;strokeColor=none;fillColor=none;align=left;verticalAlign=middle;spacingLeft=4;spacingRight=4;overflow=hidden;points=[[0,0.5],[1,0.5]];portConstraint=eastwest;rotatable=0;whiteSpace=wrap;html=1;fontSize=12;" parent="OtXa7zUtlyDd4jM8u-MA-10" vertex="1">
                    <mxGeometry y="100" width="140" height="30" as="geometry"/>
                </mxCell>
                <mxCell id="OtXa7zUtlyDd4jM8u-MA-14" value="Project Course" style="text;strokeColor=none;fillColor=none;align=left;verticalAlign=middle;spacingLeft=4;spacingRight=4;overflow=hidden;points=[[0,0.5],[1,0.5]];portConstraint=eastwest;rotatable=0;whiteSpace=wrap;html=1;fontSize=12;" parent="OtXa7zUtlyDd4jM8u-MA-10" vertex="1">
                    <mxGeometry y="130" width="140" height="30" as="geometry"/>
                </mxCell>
                <mxCell id="OtXa7zUtlyDd4jM8u-MA-16" value="Experience page" style="swimlane;fontStyle=0;childLayout=stackLayout;horizontal=1;startSize=30;horizontalStack=0;resizeParent=1;resizeParentMax=0;resizeLast=0;collapsible=1;marginBottom=0;whiteSpace=wrap;html=1;fontSize=12;" parent="1" vertex="1">
                    <mxGeometry x="720" y="320" width="140" height="70" as="geometry">
                        <mxRectangle x="1180" y="180" width="70" height="30" as="alternateBounds"/>
                    </mxGeometry>
                </mxCell>
                <mxCell id="OtXa7zUtlyDd4jM8u-MA-17" value="Pengalaman pekerjaan&amp;nbsp;" style="text;strokeColor=none;fillColor=none;align=left;verticalAlign=middle;spacingLeft=4;spacingRight=4;overflow=hidden;points=[[0,0.5],[1,0.5]];portConstraint=eastwest;rotatable=0;whiteSpace=wrap;html=1;fontSize=12;" parent="OtXa7zUtlyDd4jM8u-MA-16" vertex="1">
                    <mxGeometry y="30" width="140" height="40" as="geometry"/>
                </mxCell>
                <mxCell id="OtXa7zUtlyDd4jM8u-MA-21" value="About page" style="swimlane;fontStyle=0;childLayout=stackLayout;horizontal=1;startSize=30;horizontalStack=0;resizeParent=1;resizeParentMax=0;resizeLast=0;collapsible=1;marginBottom=0;whiteSpace=wrap;html=1;fontSize=12;" parent="1" vertex="1">
                    <mxGeometry x="880" y="320" width="140" height="80" as="geometry">
                        <mxRectangle x="1180" y="180" width="70" height="30" as="alternateBounds"/>
                    </mxGeometry>
                </mxCell>
                <mxCell id="OtXa7zUtlyDd4jM8u-MA-22" value="(Footer)&lt;br&gt;Contact, Sosial media, email, website" style="text;strokeColor=none;fillColor=none;align=left;verticalAlign=middle;spacingLeft=4;spacingRight=4;overflow=hidden;points=[[0,0.5],[1,0.5]];portConstraint=eastwest;rotatable=0;whiteSpace=wrap;html=1;fontSize=12;" parent="OtXa7zUtlyDd4jM8u-MA-21" vertex="1">
                    <mxGeometry y="30" width="140" height="50" as="geometry"/>
                </mxCell>
                <mxCell id="OtXa7zUtlyDd4jM8u-MA-30" value="" style="rounded=0;whiteSpace=wrap;html=1;fillColor=none;" parent="1" vertex="1">
                    <mxGeometry x="290" y="300" width="800" height="230" as="geometry"/>
                </mxCell>
                <mxCell id="OtXa7zUtlyDd4jM8u-MA-31" value="1 Halaman" style="text;html=1;strokeColor=none;fillColor=none;align=center;verticalAlign=middle;whiteSpace=wrap;rounded=0;rotation=-90;fontSize=20;fontStyle=1" parent="1" vertex="1">
                    <mxGeometry x="220" y="404.96" width="190" height="30" as="geometry"/>
                </mxCell>
            </root>
        </mxGraphModel>
    </diagram>
</mxfile>